<svg width="13" height="13" viewBox="0 0 13 13" fill="none" xmlns="http://www.w3.org/2000/svg">
<path d="M7.33498 6.49949L12.1094 1.73262C12.2521 1.58991 12.3323 1.39636 12.3323 1.19454C12.3323 0.992728 12.2521 0.799177 12.1094 0.656471C11.9667 0.513765 11.7732 0.433594 11.5714 0.433594C11.3695 0.433594 11.176 0.513765 11.0333 0.656471L6.26641 5.43092L1.49954 0.656471C1.35683 0.513765 1.16328 0.433594 0.961463 0.433594C0.759646 0.433594 0.566095 0.513765 0.423389 0.656471C0.280683 0.799177 0.200512 0.992728 0.200512 1.19454C0.200512 1.39636 0.280683 1.58991 0.423389 1.73262L5.19784 6.49949L0.423389 11.2664C0.352357 11.3368 0.295978 11.4206 0.257503 11.513C0.219028 11.6053 0.199219 11.7044 0.199219 11.8044C0.199219 11.9045 0.219028 12.0035 0.257503 12.0959C0.295978 12.1882 0.352357 12.2721 0.423389 12.3425C0.493841 12.4135 0.57766 12.4699 0.670011 12.5084C0.762362 12.5469 0.861417 12.5667 0.961463 12.5667C1.06151 12.5667 1.16056 12.5469 1.25291 12.5084C1.34526 12.4699 1.42908 12.4135 1.49954 12.3425L6.26641 7.56806L11.0333 12.3425C11.1037 12.4135 11.1876 12.4699 11.2799 12.5084C11.3723 12.5469 11.4713 12.5667 11.5714 12.5667C11.6714 12.5667 11.7705 12.5469 11.8628 12.5084C11.9552 12.4699 12.039 12.4135 12.1094 12.3425C12.1805 12.2721 12.2368 12.1882 12.2753 12.0959C12.3138 12.0035 12.3336 11.9045 12.3336 11.8044C12.3336 11.7044 12.3138 11.6053 12.2753 11.513C12.2368 11.4206 12.1805 11.3368 12.1094 11.2664L7.33498 6.49949Z" fill="black"/>
</svg>
