<svg width="43" height="44" viewBox="0 0 43 44" fill="none" xmlns="http://www.w3.org/2000/svg">
<path d="M21.6553 0.881836C9.95945 0.881836 0.390137 10.4511 0.390137 22.147C0.390137 33.8428 9.95945 43.4121 21.6553 43.4121C33.3511 43.4121 42.9204 33.8428 42.9204 22.147C42.9204 10.4511 33.3511 0.881836 21.6553 0.881836ZM29.5234 23.6355L23.1438 30.0151C22.9312 30.2277 22.7185 30.4404 22.5059 30.4404C22.0806 30.653 21.4426 30.653 20.8047 30.4404C20.592 30.4404 20.3794 30.2277 20.1667 30.0151L13.7872 23.6355C12.9366 22.7849 12.9366 21.509 13.7872 20.6584C14.6378 19.8078 15.9137 19.8078 16.7643 20.6584L19.5288 23.4229V15.7674C19.5288 14.4915 20.3794 13.6409 21.6553 13.6409C22.9312 13.6409 23.7818 14.4915 23.7818 15.7674V23.4229L26.5463 20.6584C27.3969 19.8078 28.6728 19.8078 29.5234 20.6584C30.374 21.509 30.374 22.7849 29.5234 23.6355Z" fill="#464646"/>
</svg>
