<svg width="26" height="27" viewBox="0 0 26 27" fill="none" xmlns="http://www.w3.org/2000/svg">
<path d="M24.392 0.599976H1.60801C1.23459 0.599976 0.876457 0.748318 0.612406 1.01237C0.348355 1.27642 0.200012 1.63455 0.200012 2.00798V24.792C0.200012 24.9769 0.236431 25.16 0.30719 25.3308C0.377949 25.5016 0.481661 25.6568 0.612406 25.7876C0.743151 25.9183 0.898368 26.022 1.06919 26.0928C1.24002 26.1636 1.42311 26.2 1.60801 26.2H13.8704V16.28H10.5424V12.44H13.8704V9.55998C13.8015 8.88382 13.8813 8.20078 14.1043 7.55874C14.3273 6.91671 14.688 6.33123 15.1612 5.84338C15.6345 5.35553 16.2087 4.97712 16.8436 4.73468C17.4786 4.49224 18.1589 4.39166 18.8368 4.43998C19.8331 4.43384 20.8289 4.48513 21.8192 4.59358V8.04958H19.784C18.1712 8.04958 17.864 8.81758 17.864 9.93118V12.4016H21.704L21.2048 16.2416H17.864V26.2H24.392C24.5769 26.2 24.76 26.1636 24.9308 26.0928C25.1017 26.022 25.2569 25.9183 25.3876 25.7876C25.5184 25.6568 25.6221 25.5016 25.6928 25.3308C25.7636 25.16 25.8 24.9769 25.8 24.792V2.00798C25.8 1.82307 25.7636 1.63998 25.6928 1.46916C25.6221 1.29833 25.5184 1.14311 25.3876 1.01237C25.2569 0.881624 25.1017 0.777912 24.9308 0.707153C24.76 0.636395 24.5769 0.599976 24.392 0.599976Z" fill="#F5F5F5"/>
</svg>
