<svg width="48" height="47" viewBox="0 0 48 47" fill="none" xmlns="http://www.w3.org/2000/svg">
<path d="M44.7141 0.317139H3.49086C2.81522 0.317139 2.16726 0.585536 1.68951 1.06329C1.21176 1.54104 0.943359 2.189 0.943359 2.86464V44.0879C0.943359 44.4224 1.00925 44.7537 1.13728 45.0628C1.2653 45.3718 1.45295 45.6527 1.68951 45.8892C1.92606 46.1258 2.2069 46.3134 2.51598 46.4415C2.82505 46.5695 3.15632 46.6354 3.49086 46.6354H25.6773V28.6871H19.6559V21.7393H25.6773V16.5285C25.5526 15.3052 25.697 14.0693 26.1005 12.9077C26.5039 11.746 27.1566 10.6867 28.0128 9.80407C28.869 8.92139 29.9079 8.23673 31.0568 7.79809C32.2056 7.35945 33.4364 7.17745 34.663 7.26488C36.4656 7.25378 38.2673 7.34657 40.0591 7.54278V13.7957H36.3768C33.4588 13.7957 32.9029 15.1853 32.9029 17.2001V21.6698H39.8507L38.9475 28.6176H32.9029V46.6354H44.7141C45.0486 46.6354 45.3799 46.5695 45.689 46.4415C45.9981 46.3134 46.2789 46.1258 46.5155 45.8892C46.752 45.6527 46.9397 45.3718 47.0677 45.0628C47.1957 44.7537 47.2616 44.4224 47.2616 44.0879V2.86464C47.2616 2.5301 47.1957 2.19883 47.0677 1.88975C46.9397 1.58068 46.752 1.29984 46.5155 1.06329C46.2789 0.826728 45.9981 0.63908 45.689 0.511056C45.3799 0.383032 45.0486 0.317139 44.7141 0.317139Z" fill="#A1A1A1"/>
</svg>
