<svg width="29" height="28" viewBox="0 0 29 28" fill="none" xmlns="http://www.w3.org/2000/svg">
<path d="M14.8 10.528C14.1133 10.528 13.442 10.7316 12.871 11.1131C12.3001 11.4946 11.8551 12.0369 11.5923 12.6713C11.3295 13.3057 11.2607 14.0039 11.3947 14.6774C11.5287 15.3509 11.8593 15.9695 12.3449 16.4551C12.8305 16.9406 13.4491 17.2713 14.1226 17.4053C14.7961 17.5393 15.4942 17.4705 16.1287 17.2077C16.7631 16.9449 17.3053 16.4999 17.6869 15.9289C18.0684 15.358 18.272 14.6867 18.272 14C18.272 13.5441 18.1822 13.0926 18.0077 12.6713C17.8332 12.2501 17.5775 11.8673 17.2551 11.5449C16.9327 11.2225 16.5499 10.9668 16.1287 10.7923C15.7074 10.6178 15.2559 10.528 14.8 10.528ZM28.702 7.098C28.6946 6.01686 28.4955 4.9456 28.114 3.934C27.833 3.19376 27.3982 2.52153 26.8383 1.96166C26.2785 1.40179 25.6062 0.967005 24.866 0.686C23.8544 0.304449 22.7831 0.105365 21.702 0.0979999C19.896 -9.38773e-08 19.364 0 14.8 0C10.236 0 9.70399 -9.38773e-08 7.89799 0.0979999C6.81685 0.105365 5.74559 0.304449 4.73399 0.686C3.99375 0.967005 3.32152 1.40179 2.76165 1.96166C2.20178 2.52153 1.76699 3.19376 1.48599 3.934C1.10444 4.9456 0.905353 6.01686 0.897988 7.098C0.799988 8.904 0.799988 9.436 0.799988 14C0.799988 18.564 0.799988 19.096 0.897988 20.902C0.913057 21.9869 1.11187 23.0615 1.48599 24.08C1.76575 24.8169 2.20017 25.4852 2.75999 26.04C3.31746 26.6032 3.99113 27.038 4.73399 27.314C5.74559 27.6956 6.81685 27.8946 7.89799 27.902C9.70399 28 10.236 28 14.8 28C19.364 28 19.896 28 21.702 27.902C22.7831 27.8946 23.8544 27.6956 24.866 27.314C25.6088 27.038 26.2825 26.6032 26.84 26.04C27.3998 25.4852 27.8342 24.8169 28.114 24.08C28.4952 23.0634 28.6942 21.9877 28.702 20.902C28.8 19.096 28.8 18.564 28.8 14C28.8 9.436 28.8 8.904 28.702 7.098ZM25.146 18.298C25.1011 19.1619 24.9167 20.0129 24.6 20.818C24.3282 21.4896 23.9242 22.0996 23.4119 22.6119C22.8996 23.1242 22.2895 23.5282 21.618 23.8C20.8053 24.099 19.9496 24.2645 19.084 24.29C17.978 24.29 17.684 24.29 14.8 24.29C11.916 24.29 11.622 24.29 10.516 24.29C9.65041 24.2645 8.79467 24.099 7.98199 23.8C7.28773 23.542 6.66078 23.1304 6.14799 22.596C5.64072 22.0938 5.24897 21.487 4.99999 20.818C4.69977 20.0062 4.53884 19.1494 4.52399 18.284C4.52399 17.178 4.52399 16.884 4.52399 14C4.52399 11.116 4.52399 10.822 4.52399 9.716C4.53884 8.85056 4.69977 7.99384 4.99999 7.182C5.25798 6.48774 5.66957 5.86079 6.20399 5.348C6.70845 4.84347 7.31456 4.45213 7.98199 4.2C8.79467 3.90097 9.65041 3.73549 10.516 3.71C11.622 3.71 11.916 3.71 14.8 3.71C17.684 3.71 17.978 3.71 19.084 3.71C19.9496 3.73549 20.8053 3.90097 21.618 4.2C22.3122 4.45799 22.9392 4.86958 23.452 5.404C23.9593 5.90625 24.351 6.51298 24.6 7.182C24.899 7.99468 25.0645 8.85042 25.09 9.716C25.09 10.822 25.09 11.116 25.09 14C25.09 16.884 25.188 17.178 25.146 18.284V18.298ZM22.906 7.882C22.7393 7.42978 22.4765 7.0191 22.1357 6.6783C21.7949 6.3375 21.3842 6.07469 20.932 5.908C20.311 5.69276 19.6571 5.58851 19 5.6C17.908 5.6 17.6 5.6 14.8 5.6C12 5.6 11.692 5.6 10.6 5.6C9.93956 5.60645 9.28548 5.72969 8.66799 5.964C8.22269 6.12312 7.81636 6.3752 7.47601 6.70348C7.13565 7.03176 6.86907 7.42873 6.69399 7.868C6.49067 8.49151 6.39135 9.14423 6.39999 9.8C6.39999 10.892 6.39999 11.2 6.39999 14C6.39999 16.8 6.39999 17.108 6.39999 18.2C6.41387 18.8597 6.53686 19.5125 6.76399 20.132C6.93068 20.5842 7.19349 20.9949 7.53429 21.3357C7.87509 21.6765 8.28577 21.9393 8.73799 22.106C9.33532 22.3257 9.9639 22.4486 10.6 22.47C11.692 22.47 12 22.47 14.8 22.47C17.6 22.47 17.908 22.47 19 22.47C19.6604 22.4635 20.3145 22.3403 20.932 22.106C21.3842 21.9393 21.7949 21.6765 22.1357 21.3357C22.4765 20.9949 22.7393 20.5842 22.906 20.132C23.1403 19.5145 23.2635 18.8604 23.27 18.2C23.27 17.108 23.27 16.8 23.27 14C23.27 11.2 23.27 10.892 23.27 9.8C23.2704 9.13892 23.1469 8.48361 22.906 7.868V7.882ZM14.8 19.348C14.0983 19.348 13.4036 19.2096 12.7555 18.9406C12.1075 18.6717 11.5188 18.2776 11.0233 17.7808C10.5278 17.284 10.1352 16.6943 9.86799 16.0455C9.60076 15.3968 9.46415 14.7016 9.46599 14C9.46599 12.9417 9.78 11.9071 10.3683 11.0274C10.9565 10.1476 11.7926 9.46213 12.7706 9.05777C13.7487 8.6534 14.8247 8.54832 15.8625 8.75581C16.9003 8.9633 17.8532 9.47404 18.6005 10.2234C19.3479 10.9727 19.8562 11.9269 20.0609 12.9653C20.2657 14.0036 20.1578 15.0793 19.7509 16.0563C19.3439 17.0333 18.6563 17.8676 17.775 18.4535C16.8937 19.0395 15.8583 19.3508 14.8 19.348ZM20.4 9.702C20.0905 9.66924 19.8041 9.52311 19.5959 9.29176C19.3878 9.06041 19.2726 8.76021 19.2726 8.449C19.2726 8.13779 19.3878 7.83759 19.5959 7.60624C19.8041 7.37489 20.0905 7.22876 20.4 7.196C20.7095 7.22876 20.9959 7.37489 21.204 7.60624C21.4122 7.83759 21.5274 8.13779 21.5274 8.449C21.5274 8.76021 21.4122 9.06041 21.204 9.29176C20.9959 9.52311 20.7095 9.66924 20.4 9.702Z" fill="#F5F5F5"/>
</svg>
