<svg width="52" height="53" viewBox="0 0 52 53" fill="none" xmlns="http://www.w3.org/2000/svg">
<path d="M25.974 20.1119C24.7153 20.1119 23.4848 20.4851 22.4383 21.1844C21.3917 21.8837 20.576 22.8776 20.0944 24.0405C19.6127 25.2034 19.4866 26.483 19.7322 27.7175C19.9778 28.952 20.5839 30.0859 21.4739 30.976C22.3639 31.866 23.4979 32.4721 24.7324 32.7177C25.9669 32.9632 27.2465 32.8372 28.4094 32.3555C29.5723 31.8738 30.5662 31.0581 31.2655 30.0116C31.9648 28.965 32.338 27.7346 32.338 26.4759C32.338 25.6402 32.1734 24.8126 31.8536 24.0405C31.5337 23.2684 31.065 22.5668 30.474 21.9759C29.8831 21.3849 29.1815 20.9161 28.4094 20.5963C27.6373 20.2765 26.8097 20.1119 25.974 20.1119ZM51.4558 13.8248C51.4423 11.8431 51.0774 9.87955 50.378 8.02532C49.8629 6.6685 49.066 5.43632 48.0398 4.4101C47.0135 3.38388 45.7814 2.58694 44.4246 2.07186C42.5703 1.3725 40.6067 1.00758 38.6251 0.994083C35.3147 0.814453 34.3396 0.814453 25.974 0.814453C17.6083 0.814453 16.6332 0.814453 13.3229 0.994083C11.3412 1.00758 9.37759 1.3725 7.52337 2.07186C6.16655 2.58694 4.93437 3.38388 3.90815 4.4101C2.88192 5.43632 2.08498 6.6685 1.56991 8.02532C0.870544 9.87955 0.50563 11.8431 0.49213 13.8248C0.3125 17.1351 0.3125 18.1103 0.3125 26.4759C0.3125 34.8416 0.3125 35.8167 0.49213 39.127C0.519752 41.1157 0.884171 43.0853 1.56991 44.9522C2.0827 46.3028 2.87898 47.5278 3.9051 48.5448C4.92693 49.5772 6.16175 50.3741 7.52337 50.88C9.37759 51.5793 11.3412 51.9442 13.3229 51.9577C16.6332 52.1374 17.6083 52.1374 25.974 52.1374C34.3396 52.1374 35.3147 52.1374 38.6251 51.9577C40.6067 51.9442 42.5703 51.5793 44.4246 50.88C45.7862 50.3741 47.021 49.5772 48.0428 48.5448C49.0689 47.5278 49.8652 46.3028 50.378 44.9522C51.0767 43.0888 51.4415 41.117 51.4558 39.127C51.6354 35.8167 51.6354 34.8416 51.6354 26.4759C51.6354 18.1103 51.6354 17.1351 51.4558 13.8248ZM44.9378 34.354C44.8554 35.9376 44.5175 37.4974 43.937 38.973C43.4388 40.204 42.6982 41.3222 41.7592 42.2612C40.8202 43.2002 39.702 43.9408 38.4711 44.4389C36.9815 44.9871 35.4129 45.2904 33.8264 45.3371C31.7991 45.3371 31.2602 45.3371 25.974 45.3371C20.6877 45.3371 20.1488 45.3371 18.1216 45.3371C16.535 45.2904 14.9664 44.9871 13.4768 44.4389C12.2043 43.966 11.0551 43.2116 10.1152 42.2321C9.18538 41.3114 8.46731 40.1993 8.01094 38.973C7.46065 37.485 7.16567 35.9146 7.13845 34.3283C7.13845 32.3011 7.13845 31.7622 7.13845 26.4759C7.13845 21.1897 7.13845 20.6508 7.13845 18.6235C7.16567 17.0372 7.46065 15.4669 8.01094 13.9788C8.48383 12.7062 9.23826 11.5571 10.2178 10.6171C11.1425 9.69235 12.2535 8.97504 13.4768 8.51289C14.9664 7.96478 16.535 7.66147 18.1216 7.61474C20.1488 7.61474 20.6877 7.61474 25.974 7.61474C31.2602 7.61474 31.7991 7.61474 33.8264 7.61474C35.4129 7.66147 36.9815 7.96478 38.4711 8.51289C39.7436 8.98578 40.8928 9.74021 41.8327 10.7198C42.7625 11.6404 43.4806 12.7525 43.937 13.9788C44.4851 15.4684 44.7884 17.0369 44.8351 18.6235C44.8351 20.6508 44.8351 21.1897 44.8351 26.4759C44.8351 31.7622 45.0148 32.3011 44.9378 34.3283V34.354ZM40.832 15.2619C40.5264 14.433 40.0447 13.6802 39.42 13.0555C38.7953 12.4308 38.0426 11.9491 37.2137 11.6436C36.0755 11.2491 34.8768 11.058 33.6724 11.079C31.6708 11.079 31.1063 11.079 25.974 11.079C20.8417 11.079 20.2771 11.079 18.2755 11.079C17.065 11.0909 15.8661 11.3167 14.7342 11.7462C13.918 12.0379 13.1732 12.4999 12.5494 13.1017C11.9255 13.7034 11.4369 14.431 11.116 15.2362C10.7433 16.3791 10.5612 17.5755 10.5771 18.7775C10.5771 20.7791 10.5771 21.3436 10.5771 26.4759C10.5771 31.6082 10.5771 32.1728 10.5771 34.1744C10.6025 35.3835 10.828 36.5801 11.2443 37.7156C11.5498 38.5445 12.0315 39.2973 12.6562 39.922C13.2809 40.5466 14.0336 41.0284 14.8625 41.3339C15.9574 41.7366 17.1096 41.9618 18.2755 42.0011C20.2771 42.0011 20.8417 42.0011 25.974 42.0011C31.1063 42.0011 31.6708 42.0011 33.6724 42.0011C34.8829 41.9893 36.0818 41.7634 37.2137 41.3339C38.0426 41.0284 38.7953 40.5466 39.42 39.922C40.0447 39.2973 40.5264 38.5445 40.832 37.7156C41.2614 36.5838 41.4873 35.3849 41.4991 34.1744C41.4991 32.1728 41.4991 31.6082 41.4991 26.4759C41.4991 21.3436 41.4991 20.7791 41.4991 18.7775C41.4999 17.5657 41.2736 16.3646 40.832 15.2362V15.2619ZM25.974 36.2786C24.6879 36.2786 23.4144 36.0249 22.2265 35.5319C21.0386 35.039 19.9597 34.3165 19.0515 33.4059C18.1433 32.4953 17.4236 31.4145 16.9338 30.2253C16.444 29.0361 16.1936 27.762 16.1969 26.4759C16.1969 24.536 16.7725 22.6398 17.8508 21.0272C18.9291 19.4146 20.4615 18.1582 22.2543 17.417C24.047 16.6758 26.0193 16.4832 27.9215 16.8635C29.8237 17.2438 31.5703 18.18 32.9402 19.5535C34.3101 20.927 35.2417 22.6761 35.6171 24.5793C35.9924 26.4825 35.7946 28.4543 35.0487 30.2451C34.3029 32.0358 33.0424 33.565 31.427 34.639C29.8116 35.7131 27.9138 36.2837 25.974 36.2786ZM36.2385 18.5978C35.6713 18.5378 35.1463 18.2699 34.7648 17.8459C34.3832 17.4218 34.1721 16.8716 34.1721 16.3011C34.1721 15.7307 34.3832 15.1805 34.7648 14.7564C35.1463 14.3323 35.6713 14.0645 36.2385 14.0044C36.8058 14.0645 37.3308 14.3323 37.7123 14.7564C38.0939 15.1805 38.305 15.7307 38.305 16.3011C38.305 16.8716 38.0939 17.4218 37.7123 17.8459C37.3308 18.2699 36.8058 18.5378 36.2385 18.5978Z" fill="#A1A1A1"/>
</svg>
