<svg width="26" height="26" viewBox="0 0 26 26" fill="none" xmlns="http://www.w3.org/2000/svg">
<path d="M25.1375 23.3623L20.5 18.7623C22.3001 16.5178 23.1719 13.6689 22.936 10.8014C22.7001 7.93389 21.3746 5.26574 19.2319 3.34556C17.0892 1.42539 14.2923 0.399146 11.4162 0.477847C8.54005 0.556547 5.8034 1.73421 3.76893 3.76869C1.73445 5.80316 0.556791 8.53981 0.478091 11.4159C0.39939 14.292 1.42564 17.089 3.34581 19.2317C5.26598 21.3743 7.93413 22.6999 10.8016 22.9358C13.6691 23.1716 16.518 22.2999 18.7625 20.4998L23.3625 25.0998C23.4787 25.2169 23.617 25.3099 23.7693 25.3734C23.9216 25.4368 24.085 25.4695 24.25 25.4695C24.415 25.4695 24.5784 25.4368 24.7307 25.3734C24.883 25.3099 25.0213 25.2169 25.1375 25.0998C25.3628 24.8667 25.4887 24.5552 25.4887 24.231C25.4887 23.9068 25.3628 23.5953 25.1375 23.3623ZM11.75 20.4998C10.0194 20.4998 8.32769 19.9866 6.88876 19.0251C5.44983 18.0637 4.32832 16.6971 3.66606 15.0982C3.00379 13.4994 2.83051 11.7401 3.16813 10.0427C3.50575 8.34539 4.33911 6.78628 5.56282 5.56257C6.78653 4.33886 8.34563 3.50551 10.043 3.16789C11.7403 2.83027 13.4996 3.00355 15.0985 3.66581C16.6973 4.32808 18.0639 5.44959 19.0254 6.88852C19.9868 8.32745 20.5 10.0192 20.5 11.7498C20.5 14.0704 19.5781 16.296 17.9372 17.9369C16.2962 19.5779 14.0706 20.4998 11.75 20.4998Z" fill="white"/>
</svg>
