<svg width="21" height="20" viewBox="0 0 21 20" fill="none" xmlns="http://www.w3.org/2000/svg">
<path d="M20 7.64095C20.1 7.14095 19.7 6.54095 19.2 6.54095L13.5 5.74095L10.9 0.540954C10.8 0.340954 10.7 0.240954 10.5 0.140954C10 -0.159046 9.4 0.0409541 9.1 0.540954L6.6 5.74095L0.9 6.54095C0.6 6.54095 0.4 6.64095 0.3 6.84095C-0.1 7.24095 -0.1 7.84095 0.3 8.24095L4.4 12.241L3.4 17.941C3.4 18.141 3.4 18.341 3.5 18.541C3.8 19.041 4.4 19.241 4.9 18.941L10 16.241L15.1 18.941C15.2 19.041 15.4 19.041 15.6 19.041C15.7 19.041 15.7 19.041 15.8 19.041C16.3 18.941 16.7 18.441 16.6 17.841L15.6 12.141L19.7 8.14095C19.9 8.04095 20 7.84095 20 7.64095Z" fill="#ECCD2B"/>
</svg>
