<svg width="38" height="45" viewBox="0 0 38 45" fill="none" xmlns="http://www.w3.org/2000/svg">
<path d="M37.9098 17.1901C37.5959 13.9227 36.4418 10.7923 34.5596 8.10374C32.6775 5.41515 30.1315 3.26 27.1696 1.84815C24.2078 0.436308 20.9309 -0.184113 17.6582 0.0473037C14.3855 0.27872 11.2285 1.35409 8.49457 3.16869C6.14582 4.74 4.17406 6.81225 2.72093 9.23658C1.26781 11.6609 0.369398 14.3771 0.0902333 17.1901C-0.183618 19.9847 0.167736 22.8052 1.1188 25.4471C2.06987 28.0889 3.5968 30.4858 5.58882 32.4639L17.4354 44.3385C17.6432 44.5481 17.8904 44.7145 18.1627 44.828C18.4351 44.9416 18.7273 45 19.0224 45C19.3174 45 19.6096 44.9416 19.882 44.828C20.1543 44.7145 20.4016 44.5481 20.6093 44.3385L32.4112 32.4639C34.4032 30.4858 35.9301 28.0889 36.8812 25.4471C37.8323 22.8052 38.1836 19.9847 37.9098 17.1901ZM29.2819 29.3107L19 39.5976L8.71809 29.3107C7.20283 27.7947 6.04212 25.9615 5.31941 23.9431C4.59669 21.9248 4.32992 19.7712 4.53828 17.6374C4.74798 15.4707 5.4363 13.3776 6.55346 11.5096C7.67063 9.64164 9.18873 8.04535 10.998 6.83618C13.3694 5.26013 16.153 4.41943 19 4.41943C21.847 4.41943 24.6306 5.26013 27.002 6.83618C28.8058 8.04068 30.3205 9.62992 31.4374 11.4897C32.5543 13.3495 33.2456 15.4338 33.4617 17.5927C33.6769 19.7337 33.4135 21.8959 32.6905 23.9225C31.9676 25.9492 30.8033 27.7897 29.2819 29.3107ZM19 9.07246C17.0106 9.07246 15.066 9.66265 13.4119 10.7684C11.7578 11.8742 10.4686 13.4458 9.70726 15.2847C8.94597 17.1235 8.74678 19.1469 9.13488 21.0989C9.52299 23.051 10.481 24.8441 11.8876 26.2515C13.2943 27.6588 15.0866 28.6173 17.0377 29.0056C18.9888 29.3939 21.0112 29.1946 22.8492 28.4329C24.6871 27.6713 26.258 26.3814 27.3632 24.7265C28.4685 23.0716 29.0584 21.126 29.0584 19.1357C29.0525 16.4686 27.9909 13.9124 26.1058 12.0264C24.2208 10.1405 21.6658 9.07836 19 9.07246ZM19 24.7264C17.8948 24.7264 16.8144 24.3985 15.8955 23.7842C14.9765 23.1699 14.2603 22.2967 13.8374 21.2752C13.4144 20.2536 13.3038 19.1295 13.5194 18.045C13.735 16.9605 14.2672 15.9644 15.0487 15.1825C15.8302 14.4006 16.8259 13.8681 17.9098 13.6524C18.9938 13.4367 20.1174 13.5474 21.1384 13.9706C22.1595 14.3937 23.0322 15.1103 23.6462 16.0297C24.2603 16.9491 24.588 18.03 24.588 19.1357C24.588 20.6184 23.9993 22.0405 22.9513 23.0889C21.9034 24.1374 20.482 24.7264 19 24.7264Z" fill="white"/>
</svg>
