<svg width="31" height="21" viewBox="0 0 31 21" fill="none" xmlns="http://www.w3.org/2000/svg">
<path d="M30.393 7.53052C30.4613 5.60587 30.029 3.69562 29.1363 1.97714C28.5307 1.27201 27.6901 0.796157 26.7611 0.632501C22.9187 0.293012 19.0603 0.153867 15.2026 0.215661C11.3589 0.151062 7.51445 0.285717 3.68549 0.619054C2.92848 0.753138 2.22793 1.09888 1.66931 1.61409C0.426458 2.73015 0.288364 4.63954 0.150269 6.25311C-0.0500897 9.15427 -0.0500897 12.0652 0.150269 14.9664C0.19022 15.8746 0.329093 16.7761 0.564553 17.6557C0.731061 18.3348 1.06794 18.9632 1.54502 19.4844C2.10744 20.0269 2.82431 20.3923 3.60264 20.5332C6.57984 20.8911 9.57967 21.0394 12.5788 20.977C17.4121 21.0442 21.6516 20.977 26.6644 20.6005C27.4619 20.4682 28.1989 20.1023 28.7773 19.5516C29.1639 19.175 29.4527 18.7141 29.6197 18.207C30.1135 16.7314 30.3561 15.1871 30.3378 13.6352C30.393 12.8822 30.393 8.33731 30.393 7.53052ZM12.0816 14.442V6.11865L20.2568 10.3005C17.9645 11.5376 14.9402 12.936 12.0816 14.442Z" fill="#F5F5F5"/>
</svg>
