<svg width="49" height="35" viewBox="0 0 49 35" fill="none" xmlns="http://www.w3.org/2000/svg">
<path d="M48.8938 12.5943C49.0024 9.53325 48.3149 6.49505 46.8951 3.76187C45.9318 2.64038 44.5949 1.88355 43.1174 1.62326C37.0061 1.08331 30.8695 0.862007 24.7339 0.960289C18.6207 0.857546 12.5062 1.07171 6.41634 1.60187C5.21235 1.81513 4.09813 2.36502 3.20967 3.18445C1.23296 4.95949 1.01332 7.99632 0.793685 10.5627C0.475022 15.1769 0.475022 19.8067 0.793685 24.4209C0.857226 25.8653 1.0781 27.2991 1.45259 28.6981C1.71742 29.7782 2.25321 30.7776 3.012 31.6066C3.9065 32.4694 5.04666 33.0506 6.28456 33.2747C11.0197 33.8438 15.7908 34.0797 20.5608 33.9805C28.2481 34.0874 34.9909 33.9805 42.9636 33.3817C44.2319 33.1713 45.4042 32.5894 46.324 31.7135C46.9389 31.1145 47.3982 30.3814 47.6638 29.5749C48.4493 27.228 48.8351 24.7718 48.8059 22.3036C48.8938 21.106 48.8938 13.8775 48.8938 12.5943ZM19.7702 23.5868V10.3488L32.7725 16.9999C29.1266 18.9674 24.3166 21.1916 19.7702 23.5868Z" fill="#A1A1A1"/>
</svg>
